<mxfile host="app.diagrams.net" modified="2020-03-23T07:41:13.757Z" agent="Mozilla/5.0 (Windows NT 10.0; Win64; x64) AppleWebKit/537.36 (KHTML, like Gecko) Chrome/80.0.3987.149 Safari/537.36" etag="Inqv3UFVIsDcLocXe4O5" version="12.8.8" type="github">
  <diagram id="8_lbSUMcof8K4NXEEabz" name="Page-1">
    <mxGraphModel dx="1792" dy="515" grid="1" gridSize="10" guides="1" tooltips="1" connect="1" arrows="1" fold="1" page="1" pageScale="1" pageWidth="850" pageHeight="1100" math="0" shadow="0">
      <root>
        <mxCell id="0" />
        <mxCell id="1" parent="0" />
        <mxCell id="TYkr1D7elFWCSb4sxD_Y-115" value="" style="rounded=0;whiteSpace=wrap;html=1;strokeColor=#FFF4C3;fontSize=11;align=left;" parent="1" vertex="1">
          <mxGeometry x="-410" y="850" width="390" height="210" as="geometry" />
        </mxCell>
        <mxCell id="TYkr1D7elFWCSb4sxD_Y-114" value="" style="rounded=0;whiteSpace=wrap;html=1;strokeColor=#FFF4C3;fontSize=11;align=left;" parent="1" vertex="1">
          <mxGeometry x="-810" y="850" width="390" height="210" as="geometry" />
        </mxCell>
        <mxCell id="TYkr1D7elFWCSb4sxD_Y-7" value="MS SQL Server" style="fontColor=#0066CC;verticalAlign=top;verticalLabelPosition=bottom;labelPosition=center;align=center;html=1;outlineConnect=0;fillColor=#CCCCCC;strokeColor=#6881B3;gradientColor=none;gradientDirection=north;strokeWidth=2;shape=mxgraph.networks.server_storage;" parent="1" vertex="1">
          <mxGeometry x="-152.5" y="270" width="105" height="105" as="geometry" />
        </mxCell>
        <mxCell id="TYkr1D7elFWCSb4sxD_Y-8" value="Agent Server" style="fontColor=#0066CC;verticalAlign=top;verticalLabelPosition=bottom;labelPosition=center;align=center;html=1;outlineConnect=0;fillColor=#CCCCCC;strokeColor=#6881B3;gradientColor=none;gradientDirection=north;strokeWidth=2;shape=mxgraph.networks.server;" parent="1" vertex="1">
          <mxGeometry x="-700" y="130" width="90" height="100" as="geometry" />
        </mxCell>
        <mxCell id="TYkr1D7elFWCSb4sxD_Y-14" value="" style="edgeStyle=orthogonalEdgeStyle;rounded=0;orthogonalLoop=1;jettySize=auto;html=1;entryX=0;entryY=0.5;entryDx=0;entryDy=0;entryPerimeter=0;" parent="1" source="TYkr1D7elFWCSb4sxD_Y-10" target="TYkr1D7elFWCSb4sxD_Y-28" edge="1">
          <mxGeometry relative="1" as="geometry">
            <mxPoint x="-145" y="180" as="targetPoint" />
          </mxGeometry>
        </mxCell>
        <mxCell id="TYkr1D7elFWCSb4sxD_Y-15" style="edgeStyle=orthogonalEdgeStyle;rounded=0;orthogonalLoop=1;jettySize=auto;html=1;exitX=0.5;exitY=1;exitDx=0;exitDy=0;exitPerimeter=0;entryX=0;entryY=0.5;entryDx=0;entryDy=0;entryPerimeter=0;" parent="1" source="TYkr1D7elFWCSb4sxD_Y-10" target="TYkr1D7elFWCSb4sxD_Y-7" edge="1">
          <mxGeometry relative="1" as="geometry" />
        </mxCell>
        <mxCell id="TYkr1D7elFWCSb4sxD_Y-10" value="Logger Server" style="fontColor=#0066CC;verticalAlign=top;verticalLabelPosition=bottom;labelPosition=center;align=center;html=1;outlineConnect=0;fillColor=#CCCCCC;strokeColor=#FFF4C3;gradientColor=none;gradientDirection=north;strokeWidth=2;shape=mxgraph.networks.server;" parent="1" vertex="1">
          <mxGeometry x="-315" y="130" width="90" height="100" as="geometry" />
        </mxCell>
        <mxCell id="TYkr1D7elFWCSb4sxD_Y-16" style="edgeStyle=orthogonalEdgeStyle;rounded=0;orthogonalLoop=1;jettySize=auto;html=1;" parent="1" target="TYkr1D7elFWCSb4sxD_Y-7" edge="1">
          <mxGeometry relative="1" as="geometry">
            <mxPoint x="-100" y="230" as="sourcePoint" />
          </mxGeometry>
        </mxCell>
        <mxCell id="TYkr1D7elFWCSb4sxD_Y-20" style="edgeStyle=orthogonalEdgeStyle;rounded=0;orthogonalLoop=1;jettySize=auto;html=1;exitX=0.5;exitY=0;exitDx=0;exitDy=0;exitPerimeter=0;entryX=0.5;entryY=1;entryDx=0;entryDy=0;entryPerimeter=0;" parent="1" source="TYkr1D7elFWCSb4sxD_Y-18" target="TYkr1D7elFWCSb4sxD_Y-8" edge="1">
          <mxGeometry relative="1" as="geometry" />
        </mxCell>
        <mxCell id="TYkr1D7elFWCSb4sxD_Y-18" value="" style="fontColor=#0066CC;verticalAlign=top;verticalLabelPosition=bottom;labelPosition=center;align=center;html=1;outlineConnect=0;fillColor=#CCCCCC;strokeColor=#6881B3;gradientColor=none;gradientDirection=north;strokeWidth=2;shape=mxgraph.networks.server_storage;" parent="1" vertex="1">
          <mxGeometry x="-707.5" y="280" width="105" height="105" as="geometry" />
        </mxCell>
        <mxCell id="TYkr1D7elFWCSb4sxD_Y-23" value="" style="html=1;outlineConnect=0;fillColor=#CCCCCC;strokeColor=#6881B3;gradientColor=none;gradientDirection=north;strokeWidth=2;shape=mxgraph.networks.comm_link_edge;html=1;exitX=1;exitY=0.5;exitDx=0;exitDy=0;exitPerimeter=0;" parent="1" source="TYkr1D7elFWCSb4sxD_Y-8" target="TYkr1D7elFWCSb4sxD_Y-10" edge="1">
          <mxGeometry width="100" height="100" relative="1" as="geometry">
            <mxPoint x="-520" y="300" as="sourcePoint" />
            <mxPoint x="-420" y="200" as="targetPoint" />
          </mxGeometry>
        </mxCell>
        <mxCell id="TYkr1D7elFWCSb4sxD_Y-25" value="" style="endArrow=none;dashed=1;html=1;" parent="1" edge="1">
          <mxGeometry width="50" height="50" relative="1" as="geometry">
            <mxPoint x="-190" y="80" as="sourcePoint" />
            <mxPoint x="-190" y="420" as="targetPoint" />
          </mxGeometry>
        </mxCell>
        <mxCell id="TYkr1D7elFWCSb4sxD_Y-26" value="PCI ZONE" style="text;html=1;align=center;verticalAlign=middle;resizable=0;points=[];autosize=1;" parent="1" vertex="1">
          <mxGeometry x="-180" y="90" width="70" height="20" as="geometry" />
        </mxCell>
        <mxCell id="TYkr1D7elFWCSb4sxD_Y-27" value="Option-1 : Open WebAPI" style="text;html=1;align=left;verticalAlign=middle;resizable=0;points=[];autosize=1;fontSize=17;fontStyle=1" parent="1" vertex="1">
          <mxGeometry x="-780" y="60" width="210" height="30" as="geometry" />
        </mxCell>
        <mxCell id="TYkr1D7elFWCSb4sxD_Y-29" value="" style="edgeStyle=orthogonalEdgeStyle;rounded=0;orthogonalLoop=1;jettySize=auto;html=1;fontSize=17;" parent="1" source="TYkr1D7elFWCSb4sxD_Y-28" target="TYkr1D7elFWCSb4sxD_Y-7" edge="1">
          <mxGeometry relative="1" as="geometry" />
        </mxCell>
        <mxCell id="TYkr1D7elFWCSb4sxD_Y-28" value="BizView Server" style="fontColor=#0066CC;verticalAlign=top;verticalLabelPosition=bottom;labelPosition=center;align=center;html=1;outlineConnect=0;fillColor=#CCCCCC;strokeColor=#6881B3;gradientColor=none;gradientDirection=north;strokeWidth=2;shape=mxgraph.networks.web_server;" parent="1" vertex="1">
          <mxGeometry x="-152.5" y="127.5" width="105" height="105" as="geometry" />
        </mxCell>
        <mxCell id="TYkr1D7elFWCSb4sxD_Y-38" value="" style="group" parent="1" vertex="1" connectable="0">
          <mxGeometry x="-380" y="110" width="85" height="55" as="geometry" />
        </mxCell>
        <mxCell id="TYkr1D7elFWCSb4sxD_Y-30" value="TLF:9001" style="text;html=1;align=center;verticalAlign=middle;resizable=0;points=[];autosize=1;fontSize=11;" parent="TYkr1D7elFWCSb4sxD_Y-38" vertex="1">
          <mxGeometry width="60" height="20" as="geometry" />
        </mxCell>
        <mxCell id="TYkr1D7elFWCSb4sxD_Y-34" value="" style="ellipse;whiteSpace=wrap;html=1;fontSize=17;fillColor=#fff2cc;strokeColor=#d6b656;" parent="TYkr1D7elFWCSb4sxD_Y-38" vertex="1">
          <mxGeometry x="15" y="25" width="70" height="30" as="geometry" />
        </mxCell>
        <mxCell id="TYkr1D7elFWCSb4sxD_Y-40" value="" style="group" parent="1" vertex="1" connectable="0">
          <mxGeometry x="-385" y="190" width="90" height="56" as="geometry" />
        </mxCell>
        <mxCell id="TYkr1D7elFWCSb4sxD_Y-31" value="EMS:9002" style="text;html=1;align=center;verticalAlign=middle;resizable=0;points=[];autosize=1;fontSize=11;" parent="TYkr1D7elFWCSb4sxD_Y-40" vertex="1">
          <mxGeometry y="36" width="70" height="20" as="geometry" />
        </mxCell>
        <mxCell id="TYkr1D7elFWCSb4sxD_Y-35" value="" style="ellipse;whiteSpace=wrap;html=1;fontSize=17;fillColor=#fff2cc;strokeColor=#d6b656;" parent="TYkr1D7elFWCSb4sxD_Y-40" vertex="1">
          <mxGeometry x="20" width="70" height="30" as="geometry" />
        </mxCell>
        <mxCell id="TYkr1D7elFWCSb4sxD_Y-41" value="MS SQL Server" style="fontColor=#0066CC;verticalAlign=top;verticalLabelPosition=bottom;labelPosition=center;align=center;html=1;outlineConnect=0;fillColor=#CCCCCC;strokeColor=#6881B3;gradientColor=none;gradientDirection=north;strokeWidth=2;shape=mxgraph.networks.server_storage;" parent="1" vertex="1">
          <mxGeometry x="-152.5" y="660" width="105" height="105" as="geometry" />
        </mxCell>
        <mxCell id="TYkr1D7elFWCSb4sxD_Y-42" value="Agent Server" style="fontColor=#0066CC;verticalAlign=top;verticalLabelPosition=bottom;labelPosition=center;align=center;html=1;outlineConnect=0;fillColor=#CCCCCC;strokeColor=#6881B3;gradientColor=none;gradientDirection=north;strokeWidth=2;shape=mxgraph.networks.server;" parent="1" vertex="1">
          <mxGeometry x="-700" y="520" width="90" height="100" as="geometry" />
        </mxCell>
        <mxCell id="TYkr1D7elFWCSb4sxD_Y-46" style="edgeStyle=orthogonalEdgeStyle;rounded=0;orthogonalLoop=1;jettySize=auto;html=1;" parent="1" target="TYkr1D7elFWCSb4sxD_Y-41" edge="1">
          <mxGeometry relative="1" as="geometry">
            <mxPoint x="-100" y="620" as="sourcePoint" />
          </mxGeometry>
        </mxCell>
        <mxCell id="TYkr1D7elFWCSb4sxD_Y-47" style="edgeStyle=orthogonalEdgeStyle;rounded=0;orthogonalLoop=1;jettySize=auto;html=1;exitX=0.5;exitY=0;exitDx=0;exitDy=0;exitPerimeter=0;entryX=0.5;entryY=1;entryDx=0;entryDy=0;entryPerimeter=0;" parent="1" source="TYkr1D7elFWCSb4sxD_Y-48" target="TYkr1D7elFWCSb4sxD_Y-42" edge="1">
          <mxGeometry relative="1" as="geometry" />
        </mxCell>
        <mxCell id="TYkr1D7elFWCSb4sxD_Y-48" value="" style="fontColor=#0066CC;verticalAlign=top;verticalLabelPosition=bottom;labelPosition=center;align=center;html=1;outlineConnect=0;fillColor=#CCCCCC;strokeColor=#6881B3;gradientColor=none;gradientDirection=north;strokeWidth=2;shape=mxgraph.networks.server_storage;" parent="1" vertex="1">
          <mxGeometry x="-707.5" y="670" width="105" height="105" as="geometry" />
        </mxCell>
        <mxCell id="TYkr1D7elFWCSb4sxD_Y-50" value="" style="endArrow=none;dashed=1;html=1;" parent="1" edge="1">
          <mxGeometry width="50" height="50" relative="1" as="geometry">
            <mxPoint x="-190" y="470" as="sourcePoint" />
            <mxPoint x="-190" y="810" as="targetPoint" />
          </mxGeometry>
        </mxCell>
        <mxCell id="TYkr1D7elFWCSb4sxD_Y-51" value="PCI ZONE" style="text;html=1;align=center;verticalAlign=middle;resizable=0;points=[];autosize=1;" parent="1" vertex="1">
          <mxGeometry x="-180" y="480" width="70" height="20" as="geometry" />
        </mxCell>
        <mxCell id="TYkr1D7elFWCSb4sxD_Y-52" value="Option-2 : Open Web API on existing server" style="text;html=1;align=left;verticalAlign=middle;resizable=0;points=[];autosize=1;fontSize=17;fontStyle=1" parent="1" vertex="1">
          <mxGeometry x="-780" y="450" width="370" height="30" as="geometry" />
        </mxCell>
        <mxCell id="TYkr1D7elFWCSb4sxD_Y-53" value="" style="edgeStyle=orthogonalEdgeStyle;rounded=0;orthogonalLoop=1;jettySize=auto;html=1;fontSize=17;" parent="1" source="TYkr1D7elFWCSb4sxD_Y-54" target="TYkr1D7elFWCSb4sxD_Y-41" edge="1">
          <mxGeometry relative="1" as="geometry" />
        </mxCell>
        <mxCell id="TYkr1D7elFWCSb4sxD_Y-54" value="BizView Server" style="fontColor=#0066CC;verticalAlign=top;verticalLabelPosition=bottom;labelPosition=center;align=center;html=1;outlineConnect=0;fillColor=#CCCCCC;strokeColor=#6881B3;gradientColor=none;gradientDirection=north;strokeWidth=2;shape=mxgraph.networks.web_server;" parent="1" vertex="1">
          <mxGeometry x="-152.5" y="517.5" width="105" height="105" as="geometry" />
        </mxCell>
        <mxCell id="TYkr1D7elFWCSb4sxD_Y-55" value="" style="group" parent="1" vertex="1" connectable="0">
          <mxGeometry x="-220" y="500" width="85" height="55" as="geometry" />
        </mxCell>
        <mxCell id="TYkr1D7elFWCSb4sxD_Y-56" value="TLF:9001" style="text;html=1;align=center;verticalAlign=middle;resizable=0;points=[];autosize=1;fontSize=11;" parent="TYkr1D7elFWCSb4sxD_Y-55" vertex="1">
          <mxGeometry width="60" height="20" as="geometry" />
        </mxCell>
        <mxCell id="TYkr1D7elFWCSb4sxD_Y-57" value="" style="ellipse;whiteSpace=wrap;html=1;fontSize=17;fillColor=#fff2cc;strokeColor=#d6b656;" parent="TYkr1D7elFWCSb4sxD_Y-55" vertex="1">
          <mxGeometry x="15" y="25" width="70" height="30" as="geometry" />
        </mxCell>
        <mxCell id="TYkr1D7elFWCSb4sxD_Y-58" value="" style="group" parent="1" vertex="1" connectable="0">
          <mxGeometry x="-225" y="580" width="90" height="56" as="geometry" />
        </mxCell>
        <mxCell id="TYkr1D7elFWCSb4sxD_Y-59" value="EMS:9002" style="text;html=1;align=center;verticalAlign=middle;resizable=0;points=[];autosize=1;fontSize=11;" parent="TYkr1D7elFWCSb4sxD_Y-58" vertex="1">
          <mxGeometry y="36" width="70" height="20" as="geometry" />
        </mxCell>
        <mxCell id="TYkr1D7elFWCSb4sxD_Y-60" value="" style="ellipse;whiteSpace=wrap;html=1;fontSize=17;fillColor=#fff2cc;strokeColor=#d6b656;" parent="TYkr1D7elFWCSb4sxD_Y-58" vertex="1">
          <mxGeometry x="20" width="70" height="30" as="geometry" />
        </mxCell>
        <mxCell id="TYkr1D7elFWCSb4sxD_Y-61" value="" style="html=1;outlineConnect=0;fillColor=#CCCCCC;strokeColor=#6881B3;gradientColor=none;gradientDirection=north;strokeWidth=2;shape=mxgraph.networks.comm_link_edge;html=1;exitX=1;exitY=0.5;exitDx=0;exitDy=0;exitPerimeter=0;entryX=0;entryY=0.5;entryDx=0;entryDy=0;entryPerimeter=0;" parent="1" source="TYkr1D7elFWCSb4sxD_Y-42" target="TYkr1D7elFWCSb4sxD_Y-54" edge="1">
          <mxGeometry width="100" height="100" relative="1" as="geometry">
            <mxPoint x="-570" y="569.29" as="sourcePoint" />
            <mxPoint x="-275" y="569.29" as="targetPoint" />
          </mxGeometry>
        </mxCell>
        <mxCell id="TYkr1D7elFWCSb4sxD_Y-65" value="" style="group" parent="1" vertex="1" connectable="0">
          <mxGeometry x="-630" y="890" width="85" height="55" as="geometry" />
        </mxCell>
        <mxCell id="TYkr1D7elFWCSb4sxD_Y-66" value="TLF:9001" style="text;html=1;align=center;verticalAlign=middle;resizable=0;points=[];autosize=1;fontSize=11;" parent="TYkr1D7elFWCSb4sxD_Y-65" vertex="1">
          <mxGeometry width="60" height="20" as="geometry" />
        </mxCell>
        <mxCell id="TYkr1D7elFWCSb4sxD_Y-67" value="" style="ellipse;whiteSpace=wrap;html=1;fontSize=17;fillColor=#fff2cc;strokeColor=#d6b656;" parent="TYkr1D7elFWCSb4sxD_Y-65" vertex="1">
          <mxGeometry x="15" y="25" width="70" height="30" as="geometry" />
        </mxCell>
        <mxCell id="TYkr1D7elFWCSb4sxD_Y-73" value="" style="endArrow=classic;html=1;fontSize=11;" parent="1" edge="1">
          <mxGeometry width="50" height="50" relative="1" as="geometry">
            <mxPoint x="-700" y="920" as="sourcePoint" />
            <mxPoint x="-620" y="920" as="targetPoint" />
          </mxGeometry>
        </mxCell>
        <mxCell id="TYkr1D7elFWCSb4sxD_Y-74" value="1. Req" style="text;html=1;align=center;verticalAlign=middle;resizable=0;points=[];autosize=1;fontSize=11;" parent="1" vertex="1">
          <mxGeometry x="-680" y="900" width="50" height="20" as="geometry" />
        </mxCell>
        <mxCell id="TYkr1D7elFWCSb4sxD_Y-76" value="" style="endArrow=classic;html=1;fontSize=11;" parent="1" edge="1">
          <mxGeometry width="50" height="50" relative="1" as="geometry">
            <mxPoint x="-620" y="940" as="sourcePoint" />
            <mxPoint x="-700" y="940" as="targetPoint" />
          </mxGeometry>
        </mxCell>
        <mxCell id="TYkr1D7elFWCSb4sxD_Y-78" value="MS SQL Server" style="fontColor=#0066CC;verticalAlign=top;verticalLabelPosition=bottom;labelPosition=center;align=center;html=1;outlineConnect=0;fillColor=#CCCCCC;strokeColor=#6881B3;gradientColor=none;gradientDirection=north;strokeWidth=2;shape=mxgraph.networks.server_storage;" parent="1" vertex="1">
          <mxGeometry x="-510" y="960" width="70" height="70" as="geometry" />
        </mxCell>
        <mxCell id="TYkr1D7elFWCSb4sxD_Y-79" style="edgeStyle=none;rounded=0;orthogonalLoop=1;jettySize=auto;html=1;exitX=1;exitY=0.5;exitDx=0;exitDy=0;entryX=0.5;entryY=0;entryDx=0;entryDy=0;entryPerimeter=0;fontSize=11;" parent="1" source="TYkr1D7elFWCSb4sxD_Y-67" target="TYkr1D7elFWCSb4sxD_Y-78" edge="1">
          <mxGeometry relative="1" as="geometry">
            <Array as="points">
              <mxPoint x="-475" y="930" />
            </Array>
          </mxGeometry>
        </mxCell>
        <mxCell id="TYkr1D7elFWCSb4sxD_Y-80" value="2. Log" style="text;html=1;align=center;verticalAlign=middle;resizable=0;points=[];autosize=1;fontSize=11;" parent="1" vertex="1">
          <mxGeometry x="-530" y="907.5" width="50" height="20" as="geometry" />
        </mxCell>
        <mxCell id="TYkr1D7elFWCSb4sxD_Y-81" value="3. OK" style="text;html=1;align=center;verticalAlign=middle;resizable=0;points=[];autosize=1;fontSize=11;" parent="1" vertex="1">
          <mxGeometry x="-675" y="945" width="40" height="20" as="geometry" />
        </mxCell>
        <mxCell id="TYkr1D7elFWCSb4sxD_Y-82" value="Option-A1 : Write direct" style="text;html=1;align=left;verticalAlign=middle;resizable=0;points=[];autosize=1;fontSize=17;fontStyle=1" parent="1" vertex="1">
          <mxGeometry x="-780" y="850" width="210" height="30" as="geometry" />
        </mxCell>
        <mxCell id="TYkr1D7elFWCSb4sxD_Y-86" value="" style="endArrow=classic;html=1;fontSize=11;" parent="1" edge="1">
          <mxGeometry width="50" height="50" relative="1" as="geometry">
            <mxPoint x="-390" y="920" as="sourcePoint" />
            <mxPoint x="-310" y="920" as="targetPoint" />
          </mxGeometry>
        </mxCell>
        <mxCell id="TYkr1D7elFWCSb4sxD_Y-87" value="1. Req" style="text;html=1;align=center;verticalAlign=middle;resizable=0;points=[];autosize=1;fontSize=11;" parent="1" vertex="1">
          <mxGeometry x="-370" y="900" width="50" height="20" as="geometry" />
        </mxCell>
        <mxCell id="TYkr1D7elFWCSb4sxD_Y-88" value="" style="endArrow=classic;html=1;fontSize=11;" parent="1" edge="1">
          <mxGeometry width="50" height="50" relative="1" as="geometry">
            <mxPoint x="-310" y="940" as="sourcePoint" />
            <mxPoint x="-390" y="940" as="targetPoint" />
          </mxGeometry>
        </mxCell>
        <mxCell id="TYkr1D7elFWCSb4sxD_Y-89" value="MS SQL Server" style="fontColor=#0066CC;verticalAlign=top;verticalLabelPosition=bottom;labelPosition=center;align=center;html=1;outlineConnect=0;fillColor=#CCCCCC;strokeColor=#6881B3;gradientColor=none;gradientDirection=north;strokeWidth=2;shape=mxgraph.networks.server_storage;" parent="1" vertex="1">
          <mxGeometry x="-110" y="960" width="70" height="70" as="geometry" />
        </mxCell>
        <mxCell id="TYkr1D7elFWCSb4sxD_Y-91" value="2. Write Cache" style="text;html=1;align=center;verticalAlign=middle;resizable=0;points=[];autosize=1;fontSize=11;" parent="1" vertex="1">
          <mxGeometry x="-320" y="990" width="90" height="20" as="geometry" />
        </mxCell>
        <mxCell id="TYkr1D7elFWCSb4sxD_Y-92" value="3. OK" style="text;html=1;align=center;verticalAlign=middle;resizable=0;points=[];autosize=1;fontSize=11;" parent="1" vertex="1">
          <mxGeometry x="-365" y="945" width="40" height="20" as="geometry" />
        </mxCell>
        <mxCell id="TYkr1D7elFWCSb4sxD_Y-93" value="Option-A2 : Write to Memory Queuet" style="text;html=1;align=left;verticalAlign=middle;resizable=0;points=[];autosize=1;fontSize=17;fontStyle=1" parent="1" vertex="1">
          <mxGeometry x="-400" y="850" width="310" height="30" as="geometry" />
        </mxCell>
        <mxCell id="TYkr1D7elFWCSb4sxD_Y-111" style="edgeStyle=none;rounded=0;orthogonalLoop=1;jettySize=auto;html=1;exitX=1;exitY=0.5;exitDx=0;exitDy=0;entryX=0.594;entryY=0.979;entryDx=0;entryDy=0;entryPerimeter=0;fontSize=11;" parent="1" source="TYkr1D7elFWCSb4sxD_Y-94" target="TYkr1D7elFWCSb4sxD_Y-105" edge="1">
          <mxGeometry relative="1" as="geometry">
            <Array as="points">
              <mxPoint x="-177" y="978" />
            </Array>
          </mxGeometry>
        </mxCell>
        <mxCell id="TYkr1D7elFWCSb4sxD_Y-94" value="" style="shape=cylinder;whiteSpace=wrap;html=1;boundedLbl=1;backgroundOutline=1;strokeColor=#d6b656;fontSize=11;align=left;fillColor=#fff2cc;" parent="1" vertex="1">
          <mxGeometry x="-282.5" y="965" width="25" height="25" as="geometry" />
        </mxCell>
        <mxCell id="TYkr1D7elFWCSb4sxD_Y-98" value="5. Database" style="text;html=1;align=center;verticalAlign=middle;resizable=0;points=[];autosize=1;fontSize=11;" parent="1" vertex="1">
          <mxGeometry x="-125" y="907.5" width="70" height="20" as="geometry" />
        </mxCell>
        <mxCell id="TYkr1D7elFWCSb4sxD_Y-102" value="" style="group" parent="1" vertex="1" connectable="0">
          <mxGeometry x="-320" y="890" width="85" height="55" as="geometry" />
        </mxCell>
        <mxCell id="TYkr1D7elFWCSb4sxD_Y-103" value="TLF:9001" style="text;html=1;align=center;verticalAlign=middle;resizable=0;points=[];autosize=1;fontSize=11;" parent="TYkr1D7elFWCSb4sxD_Y-102" vertex="1">
          <mxGeometry width="60" height="20" as="geometry" />
        </mxCell>
        <mxCell id="TYkr1D7elFWCSb4sxD_Y-104" value="" style="ellipse;whiteSpace=wrap;html=1;fontSize=17;fillColor=#fff2cc;strokeColor=#d6b656;" parent="TYkr1D7elFWCSb4sxD_Y-102" vertex="1">
          <mxGeometry x="15" y="25" width="70" height="30" as="geometry" />
        </mxCell>
        <mxCell id="TYkr1D7elFWCSb4sxD_Y-107" style="edgeStyle=none;rounded=0;orthogonalLoop=1;jettySize=auto;html=1;exitX=1;exitY=0.5;exitDx=0;exitDy=0;entryX=0.5;entryY=0;entryDx=0;entryDy=0;entryPerimeter=0;fontSize=11;" parent="1" source="TYkr1D7elFWCSb4sxD_Y-105" target="TYkr1D7elFWCSb4sxD_Y-89" edge="1">
          <mxGeometry relative="1" as="geometry">
            <Array as="points">
              <mxPoint x="-75" y="928" />
            </Array>
          </mxGeometry>
        </mxCell>
        <mxCell id="TYkr1D7elFWCSb4sxD_Y-105" value="" style="ellipse;whiteSpace=wrap;html=1;fontSize=17;fillColor=#fff2cc;strokeColor=#d6b656;" parent="1" vertex="1">
          <mxGeometry x="-197.5" y="920" width="35" height="15" as="geometry" />
        </mxCell>
        <mxCell id="TYkr1D7elFWCSb4sxD_Y-110" style="edgeStyle=none;rounded=0;orthogonalLoop=1;jettySize=auto;html=1;exitX=0.5;exitY=1;exitDx=0;exitDy=0;fontSize=11;" parent="1" source="TYkr1D7elFWCSb4sxD_Y-104" target="TYkr1D7elFWCSb4sxD_Y-94" edge="1">
          <mxGeometry relative="1" as="geometry" />
        </mxCell>
        <mxCell id="TYkr1D7elFWCSb4sxD_Y-112" value="4. Read Cache" style="text;html=1;align=center;verticalAlign=middle;resizable=0;points=[];autosize=1;fontSize=11;" parent="1" vertex="1">
          <mxGeometry x="-215" y="950" width="90" height="20" as="geometry" />
        </mxCell>
        <mxCell id="TYkr1D7elFWCSb4sxD_Y-113" value="worker" style="text;html=1;align=center;verticalAlign=middle;resizable=0;points=[];autosize=1;fontSize=11;" parent="1" vertex="1">
          <mxGeometry x="-212.5" y="900" width="50" height="20" as="geometry" />
        </mxCell>
      </root>
    </mxGraphModel>
  </diagram>
</mxfile>
